<mxfile host="65bd71144e">
    <diagram id="0A72QNZuopfxNOjmnA2U" name="Page-1">
        <mxGraphModel dx="2133" dy="1823" grid="1" gridSize="10" guides="1" tooltips="1" connect="1" arrows="1" fold="1" page="1" pageScale="1" pageWidth="850" pageHeight="1100" math="0" shadow="0">
            <root>
                <mxCell id="0"/>
                <mxCell id="1" parent="0"/>
                <mxCell id="2" value="Objective Function" style="rounded=0;whiteSpace=wrap;html=1;strokeColor=#2D7600;fillColor=#91FF23;fontColor=#111F04;" parent="1" vertex="1">
                    <mxGeometry x="-290" y="650" width="160" height="60" as="geometry"/>
                </mxCell>
                <mxCell id="17" style="edgeStyle=none;html=1;exitX=0.5;exitY=1;exitDx=0;exitDy=0;entryX=0.5;entryY=0;entryDx=0;entryDy=0;strokeColor=#ADADAD;fontColor=#111F04;" parent="1" source="3" target="11" edge="1">
                    <mxGeometry relative="1" as="geometry"/>
                </mxCell>
                <mxCell id="3" value="Index Data Structure" style="rounded=0;whiteSpace=wrap;html=1;strokeColor=#2D7600;fillColor=#91FF23;fontColor=#111F04;" parent="1" vertex="1">
                    <mxGeometry x="-290" y="450" width="160" height="60" as="geometry"/>
                </mxCell>
                <mxCell id="16" style="edgeStyle=none;html=1;exitX=0.5;exitY=1;exitDx=0;exitDy=0;entryX=0.5;entryY=0;entryDx=0;entryDy=0;strokeColor=#ADADAD;fontColor=#111F04;" parent="1" source="4" target="3" edge="1">
                    <mxGeometry relative="1" as="geometry"/>
                </mxCell>
                <mxCell id="4" value="Flexible Model Description" style="rounded=0;whiteSpace=wrap;html=1;strokeColor=#2D7600;fillColor=#91FF23;fontColor=#111F04;" parent="1" vertex="1">
                    <mxGeometry x="-290" y="350" width="160" height="60" as="geometry"/>
                </mxCell>
                <mxCell id="15" style="edgeStyle=none;html=1;exitX=0.5;exitY=1;exitDx=0;exitDy=0;entryX=0.5;entryY=0;entryDx=0;entryDy=0;strokeColor=#ADADAD;fontColor=#111F04;" parent="1" source="5" target="4" edge="1">
                    <mxGeometry relative="1" as="geometry"/>
                </mxCell>
                <mxCell id="5" value="Structured Model Description" style="rounded=0;whiteSpace=wrap;html=1;strokeColor=#2D7600;fillColor=#39660E;fontColor=#FFFFFF;" parent="1" vertex="1">
                    <mxGeometry x="-290" y="250" width="160" height="60" as="geometry"/>
                </mxCell>
                <mxCell id="14" style="edgeStyle=none;html=1;exitX=0.5;exitY=1;exitDx=0;exitDy=0;entryX=0.5;entryY=0;entryDx=0;entryDy=0;strokeColor=#ADADAD;fontColor=#111F04;" parent="1" source="6" target="5" edge="1">
                    <mxGeometry relative="1" as="geometry"/>
                </mxCell>
                <mxCell id="6" value="Graphical Model Description" style="rounded=0;whiteSpace=wrap;html=1;strokeColor=#2D7600;fillColor=#111F04;fontColor=#A8A8A8;" parent="1" vertex="1">
                    <mxGeometry x="-290" y="150" width="160" height="60" as="geometry"/>
                </mxCell>
                <mxCell id="18" style="edgeStyle=none;html=1;exitX=0.5;exitY=1;exitDx=0;exitDy=0;entryX=0.5;entryY=0;entryDx=0;entryDy=0;strokeColor=#ADADAD;fontColor=#111F04;" parent="1" source="11" target="2" edge="1">
                    <mxGeometry relative="1" as="geometry"/>
                </mxCell>
                <mxCell id="11" value=".cpp File Templates" style="rounded=0;whiteSpace=wrap;html=1;strokeColor=#2D7600;fillColor=#111F04;fontColor=#A8A8A8;" parent="1" vertex="1">
                    <mxGeometry x="-290" y="550" width="160" height="60" as="geometry"/>
                </mxCell>
                <mxCell id="20" style="edgeStyle=none;html=1;exitX=0.5;exitY=1;exitDx=0;exitDy=0;entryX=0.5;entryY=0;entryDx=0;entryDy=0;strokeColor=#ADADAD;fontColor=#111F04;" parent="1" source="19" target="6" edge="1">
                    <mxGeometry relative="1" as="geometry"/>
                </mxCell>
                <mxCell id="19" value="Canned Models" style="rounded=0;whiteSpace=wrap;html=1;strokeColor=#2D7600;fillColor=#91FF23;fontColor=#111F04;" parent="1" vertex="1">
                    <mxGeometry x="-290" y="50" width="160" height="60" as="geometry"/>
                </mxCell>
                <mxCell id="31" style="edgeStyle=none;html=1;exitX=0.5;exitY=1;exitDx=0;exitDy=0;entryX=0.5;entryY=0;entryDx=0;entryDy=0;" edge="1" parent="1" source="58" target="30">
                    <mxGeometry relative="1" as="geometry">
                        <mxPoint x="565" y="150" as="sourcePoint"/>
                    </mxGeometry>
                </mxCell>
                <mxCell id="32" style="edgeStyle=none;html=1;exitX=0.5;exitY=1;exitDx=0;exitDy=0;entryX=0.5;entryY=0;entryDx=0;entryDy=0;" edge="1" parent="1" source="30" target="79">
                    <mxGeometry relative="1" as="geometry">
                        <mxPoint x="565" y="340" as="targetPoint"/>
                    </mxGeometry>
                </mxCell>
                <mxCell id="135" style="edgeStyle=none;jumpStyle=arc;jumpSize=22;html=1;exitX=0;exitY=0.5;exitDx=0;exitDy=0;entryX=1;entryY=0.5;entryDx=0;entryDy=0;" edge="1" parent="1" source="30" target="128">
                    <mxGeometry relative="1" as="geometry"/>
                </mxCell>
                <mxCell id="30" value="&lt;span&gt;Model Definition Object&lt;/span&gt;&lt;br&gt;&lt;span&gt;(engine agnostic)&lt;/span&gt;" style="shape=parallelogram;perimeter=parallelogramPerimeter;whiteSpace=wrap;html=1;fixedSize=1;" vertex="1" parent="1">
                    <mxGeometry x="330" y="210" width="470" height="60" as="geometry"/>
                </mxCell>
                <mxCell id="74" style="edgeStyle=none;html=1;exitX=0.5;exitY=1;exitDx=0;exitDy=0;entryX=0.5;entryY=0;entryDx=0;entryDy=0;" edge="1" parent="1" source="56" target="73">
                    <mxGeometry relative="1" as="geometry"/>
                </mxCell>
                <mxCell id="88" style="edgeStyle=none;html=1;exitX=1;exitY=0.5;exitDx=0;exitDy=0;entryX=0;entryY=0.5;entryDx=0;entryDy=0;" edge="1" parent="1" source="56" target="87">
                    <mxGeometry relative="1" as="geometry"/>
                </mxCell>
                <mxCell id="56" value="Calibration&lt;br&gt;(e.g. ML TM, maybe MCMC?)" style="rounded=0;whiteSpace=wrap;html=1;" vertex="1" parent="1">
                    <mxGeometry x="965" y="590" width="350" height="60" as="geometry"/>
                </mxCell>
                <mxCell id="58" value="Model Definition Functions&lt;br&gt;(Domain Specific Language" style="rounded=0;whiteSpace=wrap;html=1;" vertex="1" parent="1">
                    <mxGeometry x="330" y="100" width="470" height="60" as="geometry"/>
                </mxCell>
                <mxCell id="84" style="edgeStyle=none;html=1;exitX=0.5;exitY=1;exitDx=0;exitDy=0;entryX=0.5;entryY=0;entryDx=0;entryDy=0;" edge="1" parent="1" source="59" target="58">
                    <mxGeometry relative="1" as="geometry"/>
                </mxCell>
                <mxCell id="59" value="Model Construction Inputs" style="swimlane;" vertex="1" parent="1">
                    <mxGeometry x="280" y="-260" width="570" height="310" as="geometry"/>
                </mxCell>
                <mxCell id="42" value="Post-Processing Steps&lt;br&gt;(e.g. convolution)" style="shape=parallelogram;perimeter=parallelogramPerimeter;whiteSpace=wrap;html=1;fixedSize=1;" vertex="1" parent="59">
                    <mxGeometry x="350" y="130" width="210" height="60" as="geometry"/>
                </mxCell>
                <mxCell id="34" value="State Structure" style="shape=parallelogram;perimeter=parallelogramPerimeter;whiteSpace=wrap;html=1;fixedSize=1;" vertex="1" parent="59">
                    <mxGeometry x="180" y="210" width="140" height="60" as="geometry"/>
                </mxCell>
                <mxCell id="35" value="Initial Parameters" style="shape=parallelogram;perimeter=parallelogramPerimeter;whiteSpace=wrap;html=1;fixedSize=1;" vertex="1" parent="59">
                    <mxGeometry x="15" y="40" width="140" height="60" as="geometry"/>
                </mxCell>
                <mxCell id="37" value="Rates" style="shape=parallelogram;perimeter=parallelogramPerimeter;whiteSpace=wrap;html=1;fixedSize=1;" vertex="1" parent="59">
                    <mxGeometry x="15" y="210" width="140" height="60" as="geometry"/>
                </mxCell>
                <mxCell id="38" value="Outflow" style="shape=parallelogram;perimeter=parallelogramPerimeter;whiteSpace=wrap;html=1;fixedSize=1;" vertex="1" parent="59">
                    <mxGeometry x="210" y="130" width="140" height="60" as="geometry"/>
                </mxCell>
                <mxCell id="41" value="State Initialization Steps" style="shape=parallelogram;perimeter=parallelogramPerimeter;whiteSpace=wrap;html=1;fixedSize=1;" vertex="1" parent="59">
                    <mxGeometry x="15" y="130" width="200" height="60" as="geometry"/>
                </mxCell>
                <mxCell id="45" value="Intermediate Variables&lt;br&gt;(e.g. sums of state variables)" style="shape=parallelogram;perimeter=parallelogramPerimeter;whiteSpace=wrap;html=1;fixedSize=1;" vertex="1" parent="59">
                    <mxGeometry x="160" y="40" width="200" height="60" as="geometry"/>
                </mxCell>
                <mxCell id="103" value="Symbolic Matrices&lt;br&gt;&amp;amp; Vectors" style="shape=parallelogram;perimeter=parallelogramPerimeter;whiteSpace=wrap;html=1;fixedSize=1;" vertex="1" parent="59">
                    <mxGeometry x="380" y="40" width="160" height="60" as="geometry"/>
                </mxCell>
                <mxCell id="65" value="Simulations and Forecasts" style="shape=parallelogram;perimeter=parallelogramPerimeter;whiteSpace=wrap;html=1;fixedSize=1;" vertex="1" parent="1">
                    <mxGeometry x="390" y="940" width="350" height="60" as="geometry"/>
                </mxCell>
                <mxCell id="71" style="edgeStyle=none;html=1;exitX=0.5;exitY=1;exitDx=0;exitDy=0;entryX=0.5;entryY=0;entryDx=0;entryDy=0;jumpStyle=arc;" edge="1" parent="1" source="70" target="56">
                    <mxGeometry relative="1" as="geometry"/>
                </mxCell>
                <mxCell id="70" value="Calibration Inputs" style="swimlane;" vertex="1" parent="1">
                    <mxGeometry x="920" y="-260" width="440" height="310" as="geometry"/>
                </mxCell>
                <mxCell id="46" value="Observed Data" style="shape=parallelogram;perimeter=parallelogramPerimeter;whiteSpace=wrap;html=1;fixedSize=1;" vertex="1" parent="70">
                    <mxGeometry x="15" y="40" width="210" height="60" as="geometry"/>
                </mxCell>
                <mxCell id="99" value="Parameter Transformations" style="shape=parallelogram;perimeter=parallelogramPerimeter;whiteSpace=wrap;html=1;fixedSize=1;" vertex="1" parent="70">
                    <mxGeometry x="225" y="40" width="210" height="60" as="geometry"/>
                </mxCell>
                <mxCell id="100" value="Prior Distributions &amp;amp;&amp;nbsp;&lt;br&gt;Latent Variables" style="shape=parallelogram;perimeter=parallelogramPerimeter;whiteSpace=wrap;html=1;fixedSize=1;" vertex="1" parent="70">
                    <mxGeometry x="15" y="130" width="195" height="60" as="geometry"/>
                </mxCell>
                <mxCell id="101" value="Start Date Offset" style="shape=parallelogram;perimeter=parallelogramPerimeter;whiteSpace=wrap;html=1;fixedSize=1;" vertex="1" parent="70">
                    <mxGeometry x="220" y="130" width="195" height="60" as="geometry"/>
                </mxCell>
                <mxCell id="102" value="Optimizer Settings" style="shape=parallelogram;perimeter=parallelogramPerimeter;whiteSpace=wrap;html=1;fixedSize=1;" vertex="1" parent="70">
                    <mxGeometry x="10" y="220" width="195" height="60" as="geometry"/>
                </mxCell>
                <mxCell id="127" value="Parameters to Optimize" style="shape=parallelogram;perimeter=parallelogramPerimeter;whiteSpace=wrap;html=1;fixedSize=1;" vertex="1" parent="70">
                    <mxGeometry x="225" y="220" width="185" height="60" as="geometry"/>
                </mxCell>
                <mxCell id="115" style="edgeStyle=none;html=1;exitX=0;exitY=0.5;exitDx=0;exitDy=0;entryX=1;entryY=0.5;entryDx=0;entryDy=0;" edge="1" parent="1" source="73" target="49">
                    <mxGeometry relative="1" as="geometry"/>
                </mxCell>
                <mxCell id="118" style="edgeStyle=none;html=1;exitX=0.5;exitY=1;exitDx=0;exitDy=0;entryX=0.5;entryY=0;entryDx=0;entryDy=0;" edge="1" parent="1" source="73" target="116">
                    <mxGeometry relative="1" as="geometry"/>
                </mxCell>
                <mxCell id="73" value="Calibrated Model Object&lt;br&gt;(contains fitted simulation parameters or distribution)" style="shape=parallelogram;perimeter=parallelogramPerimeter;whiteSpace=wrap;html=1;fixedSize=1;" vertex="1" parent="1">
                    <mxGeometry x="935" y="765" width="410" height="80" as="geometry"/>
                </mxCell>
                <mxCell id="63" style="edgeStyle=none;html=1;exitX=0.5;exitY=1;exitDx=0;exitDy=0;entryX=0.5;entryY=0;entryDx=0;entryDy=0;" edge="1" parent="1" source="29" target="49">
                    <mxGeometry relative="1" as="geometry"/>
                </mxCell>
                <mxCell id="78" style="edgeStyle=none;html=1;exitX=1;exitY=0.5;exitDx=0;exitDy=0;entryX=0;entryY=0.5;entryDx=0;entryDy=0;" edge="1" parent="1" source="29" target="56">
                    <mxGeometry relative="1" as="geometry"/>
                </mxCell>
                <mxCell id="29" value="Rendered Model Object&lt;br&gt;(ready to do a simulation run, given a parameter vector)" style="shape=parallelogram;perimeter=parallelogramPerimeter;whiteSpace=wrap;html=1;fixedSize=1;" vertex="1" parent="1">
                    <mxGeometry x="365" y="590" width="400" height="60" as="geometry"/>
                </mxCell>
                <mxCell id="77" style="edgeStyle=none;html=1;exitX=0.5;exitY=1;exitDx=0;exitDy=0;entryX=0.5;entryY=0;entryDx=0;entryDy=0;" edge="1" parent="1" source="49" target="65">
                    <mxGeometry relative="1" as="geometry"/>
                </mxCell>
                <mxCell id="49" value="Simulation Functions" style="swimlane;" vertex="1" parent="1">
                    <mxGeometry x="385" y="720" width="360" height="170" as="geometry"/>
                </mxCell>
                <mxCell id="51" value="Forecast" style="whiteSpace=wrap;html=1;" vertex="1" parent="49">
                    <mxGeometry x="130" y="40" width="80" height="30" as="geometry"/>
                </mxCell>
                <mxCell id="52" value="Simulate" style="whiteSpace=wrap;html=1;" vertex="1" parent="49">
                    <mxGeometry x="20" y="40" width="80" height="30" as="geometry"/>
                </mxCell>
                <mxCell id="125" value="Forecast Ensembe" style="whiteSpace=wrap;html=1;" vertex="1" parent="49">
                    <mxGeometry x="25" y="100" width="185" height="30" as="geometry"/>
                </mxCell>
                <mxCell id="80" style="edgeStyle=none;html=1;exitX=0.5;exitY=1;exitDx=0;exitDy=0;entryX=0.5;entryY=0;entryDx=0;entryDy=0;" edge="1" parent="1" source="79" target="29">
                    <mxGeometry relative="1" as="geometry"/>
                </mxCell>
                <mxCell id="79" value="Simulation Engine Adapters" style="swimlane;" vertex="1" parent="1">
                    <mxGeometry x="340" y="335" width="450" height="140" as="geometry"/>
                </mxCell>
                <mxCell id="81" value="TMB AD Fun" style="rounded=0;whiteSpace=wrap;html=1;" vertex="1" parent="79">
                    <mxGeometry x="15" y="40" width="120" height="60" as="geometry"/>
                </mxCell>
                <mxCell id="82" value="Base R Enclosures" style="rounded=0;whiteSpace=wrap;html=1;" vertex="1" parent="79">
                    <mxGeometry x="165" y="40" width="120" height="60" as="geometry"/>
                </mxCell>
                <mxCell id="83" value="Stan R Enclosures" style="rounded=0;whiteSpace=wrap;html=1;" vertex="1" parent="79">
                    <mxGeometry x="310" y="40" width="120" height="60" as="geometry"/>
                </mxCell>
                <mxCell id="87" value="Objective/Gradient /Hessian Function" style="rounded=0;whiteSpace=wrap;html=1;" vertex="1" parent="1">
                    <mxGeometry x="1390" y="590" width="150" height="60" as="geometry"/>
                </mxCell>
                <mxCell id="114" style="edgeStyle=none;html=1;exitX=0;exitY=0.5;exitDx=0;exitDy=0;entryX=1;entryY=0.5;entryDx=0;entryDy=0;" edge="1" parent="1" source="105" target="79">
                    <mxGeometry relative="1" as="geometry"/>
                </mxCell>
                <mxCell id="105" value="Simulation Inputs" style="swimlane;" vertex="1" parent="1">
                    <mxGeometry x="850" y="265" width="240" height="280" as="geometry"/>
                </mxCell>
                <mxCell id="106" value="Time Variation Model" style="shape=parallelogram;perimeter=parallelogramPerimeter;whiteSpace=wrap;html=1;fixedSize=1;" vertex="1" parent="105">
                    <mxGeometry x="15" y="40" width="220" height="60" as="geometry"/>
                </mxCell>
                <mxCell id="107" value="Temporal Simulation Bounds" style="shape=parallelogram;perimeter=parallelogramPerimeter;whiteSpace=wrap;html=1;fixedSize=1;" vertex="1" parent="105">
                    <mxGeometry x="20" y="200" width="200" height="60" as="geometry"/>
                </mxCell>
                <mxCell id="113" value="Simulation Step Method&lt;br&gt;(e.g. do_hazard)" style="shape=parallelogram;perimeter=parallelogramPerimeter;whiteSpace=wrap;html=1;fixedSize=1;" vertex="1" parent="105">
                    <mxGeometry x="15" y="120" width="225" height="60" as="geometry"/>
                </mxCell>
                <mxCell id="124" style="edgeStyle=none;html=1;exitX=0.5;exitY=1;exitDx=0;exitDy=0;entryX=0.5;entryY=1;entryDx=0;entryDy=0;" edge="1" parent="1" source="116" target="145">
                    <mxGeometry relative="1" as="geometry">
                        <mxPoint x="170" y="970" as="targetPoint"/>
                        <Array as="points">
                            <mxPoint x="1140" y="1040"/>
                            <mxPoint x="145" y="1040"/>
                        </Array>
                    </mxGeometry>
                </mxCell>
                <mxCell id="116" value="Scenario Builder" style="rounded=0;whiteSpace=wrap;html=1;" vertex="1" parent="1">
                    <mxGeometry x="980" y="900" width="320" height="60" as="geometry"/>
                </mxCell>
                <mxCell id="120" style="edgeStyle=none;html=1;exitX=1;exitY=0.5;exitDx=0;exitDy=0;entryX=1;entryY=0.5;entryDx=0;entryDy=0;jumpStyle=arc;jumpSize=22;" edge="1" parent="1" source="116" target="105">
                    <mxGeometry relative="1" as="geometry">
                        <mxPoint x="1620" y="1010" as="targetPoint"/>
                        <Array as="points">
                            <mxPoint x="1560" y="930"/>
                            <mxPoint x="1560" y="410"/>
                        </Array>
                    </mxGeometry>
                </mxCell>
                <mxCell id="123" style="edgeStyle=none;html=1;entryX=0;entryY=0.5;entryDx=0;entryDy=0;exitX=1;exitY=0.5;exitDx=0;exitDy=0;" edge="1" parent="1" source="145" target="49">
                    <mxGeometry relative="1" as="geometry">
                        <mxPoint x="260" y="840" as="sourcePoint"/>
                    </mxGeometry>
                </mxCell>
                <mxCell id="140" style="edgeStyle=none;jumpStyle=arc;jumpSize=22;html=1;exitX=0.5;exitY=1;exitDx=0;exitDy=0;entryX=0.5;entryY=0;entryDx=0;entryDy=0;" edge="1" parent="1" source="128" target="137">
                    <mxGeometry relative="1" as="geometry"/>
                </mxCell>
                <mxCell id="128" value="Compute Endogenous Characteristics" style="swimlane;" vertex="1" parent="1">
                    <mxGeometry x="20" y="160" width="250" height="160" as="geometry"/>
                </mxCell>
                <mxCell id="129" value="R0" style="rounded=0;whiteSpace=wrap;html=1;" vertex="1" parent="128">
                    <mxGeometry x="10" y="40" width="60" height="20" as="geometry"/>
                </mxCell>
                <mxCell id="130" value="Gbar" style="rounded=0;whiteSpace=wrap;html=1;" vertex="1" parent="128">
                    <mxGeometry x="90" y="40" width="60" height="20" as="geometry"/>
                </mxCell>
                <mxCell id="131" value="Initial State" style="rounded=0;whiteSpace=wrap;html=1;" vertex="1" parent="128">
                    <mxGeometry x="10" y="80" width="80" height="20" as="geometry"/>
                </mxCell>
                <mxCell id="132" value="Next-Gen Matrix" style="rounded=0;whiteSpace=wrap;html=1;" vertex="1" parent="128">
                    <mxGeometry x="110" y="80" width="130" height="20" as="geometry"/>
                </mxCell>
                <mxCell id="141" style="edgeStyle=none;jumpStyle=arc;jumpSize=22;html=1;exitX=0.5;exitY=1;exitDx=0;exitDy=0;entryX=0.5;entryY=0;entryDx=0;entryDy=0;" edge="1" parent="1" source="137" target="139">
                    <mxGeometry relative="1" as="geometry"/>
                </mxCell>
                <mxCell id="137" value="Epi Stats" style="shape=parallelogram;perimeter=parallelogramPerimeter;whiteSpace=wrap;html=1;fixedSize=1;" vertex="1" parent="1">
                    <mxGeometry x="60" y="430" width="170" height="40" as="geometry"/>
                </mxCell>
                <mxCell id="142" style="edgeStyle=none;jumpStyle=arc;jumpSize=22;html=1;exitX=0.5;exitY=1;exitDx=0;exitDy=0;entryX=0.5;entryY=0;entryDx=0;entryDy=0;" edge="1" parent="1" source="139" target="143">
                    <mxGeometry relative="1" as="geometry">
                        <mxPoint x="190" y="670" as="targetPoint"/>
                    </mxGeometry>
                </mxCell>
                <mxCell id="139" value="Fix Parameters&lt;br&gt;(adjust parameters so that they obey epi stats" style="rounded=0;whiteSpace=wrap;html=1;" vertex="1" parent="1">
                    <mxGeometry x="40" y="590" width="210" height="60" as="geometry"/>
                </mxCell>
                <mxCell id="145" value="Simulation Parameter Values" style="swimlane;" vertex="1" parent="1">
                    <mxGeometry x="45" y="705" width="200" height="200" as="geometry"/>
                </mxCell>
                <mxCell id="143" value="&lt;span&gt;Step Parameters&lt;/span&gt;" style="shape=parallelogram;perimeter=parallelogramPerimeter;whiteSpace=wrap;html=1;fixedSize=1;" vertex="1" parent="145">
                    <mxGeometry x="15" y="40" width="170" height="30" as="geometry"/>
                </mxCell>
                <mxCell id="144" value="Time Variation &lt;br&gt;Parameters" style="shape=parallelogram;perimeter=parallelogramPerimeter;whiteSpace=wrap;html=1;fixedSize=1;" vertex="1" parent="145">
                    <mxGeometry x="30" y="125" width="140" height="60" as="geometry"/>
                </mxCell>
                <mxCell id="147" value="&lt;span&gt;Stochasticity Parameters&lt;/span&gt;" style="shape=parallelogram;perimeter=parallelogramPerimeter;whiteSpace=wrap;html=1;fixedSize=1;" vertex="1" parent="145">
                    <mxGeometry x="15" y="85" width="170" height="30" as="geometry"/>
                </mxCell>
                <mxCell id="148" value="Types of Parameters" style="swimlane;fontStyle=0;childLayout=stackLayout;horizontal=1;startSize=30;horizontalStack=0;resizeParent=1;resizeParentMax=0;resizeLast=0;collapsible=1;marginBottom=0;" vertex="1" parent="1">
                    <mxGeometry x="380" y="-690" width="310" height="210" as="geometry"/>
                </mxCell>
                <mxCell id="149" value="Simulation Step" style="text;strokeColor=none;fillColor=none;align=left;verticalAlign=middle;spacingLeft=4;spacingRight=4;overflow=hidden;points=[[0,0.5],[1,0.5]];portConstraint=eastwest;rotatable=0;" vertex="1" parent="148">
                    <mxGeometry y="30" width="310" height="30" as="geometry"/>
                </mxCell>
                <mxCell id="150" value="Error Distribution" style="text;strokeColor=none;fillColor=none;align=left;verticalAlign=middle;spacingLeft=4;spacingRight=4;overflow=hidden;points=[[0,0.5],[1,0.5]];portConstraint=eastwest;rotatable=0;" vertex="1" parent="148">
                    <mxGeometry y="60" width="310" height="30" as="geometry"/>
                </mxCell>
                <mxCell id="151" value="Time Variation" style="text;strokeColor=none;fillColor=none;align=left;verticalAlign=middle;spacingLeft=4;spacingRight=4;overflow=hidden;points=[[0,0.5],[1,0.5]];portConstraint=eastwest;rotatable=0;" vertex="1" parent="148">
                    <mxGeometry y="90" width="310" height="30" as="geometry"/>
                </mxCell>
                <mxCell id="154" value="State Initialization" style="text;strokeColor=none;fillColor=none;align=left;verticalAlign=middle;spacingLeft=4;spacingRight=4;overflow=hidden;points=[[0,0.5],[1,0.5]];portConstraint=eastwest;rotatable=0;" vertex="1" parent="148">
                    <mxGeometry y="120" width="310" height="30" as="geometry"/>
                </mxCell>
                <mxCell id="153" value="Stochasticity" style="text;strokeColor=none;fillColor=none;align=left;verticalAlign=middle;spacingLeft=4;spacingRight=4;overflow=hidden;points=[[0,0.5],[1,0.5]];portConstraint=eastwest;rotatable=0;" vertex="1" parent="148">
                    <mxGeometry y="150" width="310" height="30" as="geometry"/>
                </mxCell>
                <mxCell id="152" value="Post Processing" style="text;strokeColor=none;fillColor=none;align=left;verticalAlign=middle;spacingLeft=4;spacingRight=4;overflow=hidden;points=[[0,0.5],[1,0.5]];portConstraint=eastwest;rotatable=0;" vertex="1" parent="148">
                    <mxGeometry y="180" width="310" height="30" as="geometry"/>
                </mxCell>
                <mxCell id="160" style="edgeStyle=none;jumpStyle=arc;jumpSize=22;html=1;exitX=0.5;exitY=1;exitDx=0;exitDy=0;entryX=0.5;entryY=0;entryDx=0;entryDy=0;" edge="1" parent="1" source="155" target="158">
                    <mxGeometry relative="1" as="geometry"/>
                </mxCell>
                <mxCell id="155" value="Make Compartmental Model" style="rounded=0;whiteSpace=wrap;html=1;" vertex="1" parent="1">
                    <mxGeometry x="355" y="1220" width="100" height="60" as="geometry"/>
                </mxCell>
                <mxCell id="157" style="edgeStyle=none;jumpStyle=arc;jumpSize=22;html=1;exitX=0.5;exitY=1;exitDx=0;exitDy=0;entryX=0.5;entryY=0;entryDx=0;entryDy=0;" edge="1" parent="1" source="156" target="155">
                    <mxGeometry relative="1" as="geometry"/>
                </mxCell>
                <mxCell id="156" value="Model Structure Information" style="shape=parallelogram;perimeter=parallelogramPerimeter;whiteSpace=wrap;html=1;fixedSize=1;" vertex="1" parent="1">
                    <mxGeometry x="345" y="1130" width="120" height="60" as="geometry"/>
                </mxCell>
                <mxCell id="252" style="edgeStyle=none;jumpStyle=arc;jumpSize=22;html=1;exitX=0.5;exitY=1;exitDx=0;exitDy=0;entryX=1;entryY=0.5;entryDx=0;entryDy=0;" edge="1" parent="1" source="158" target="161">
                    <mxGeometry relative="1" as="geometry">
                        <Array as="points">
                            <mxPoint x="405" y="1440"/>
                        </Array>
                    </mxGeometry>
                </mxCell>
                <mxCell id="158" value="Compartmental Model" style="shape=parallelogram;perimeter=parallelogramPerimeter;whiteSpace=wrap;html=1;fixedSize=1;" vertex="1" parent="1">
                    <mxGeometry x="345" y="1310" width="120" height="60" as="geometry"/>
                </mxCell>
                <mxCell id="164" style="edgeStyle=none;jumpStyle=arc;jumpSize=22;html=1;exitX=0.5;exitY=1;exitDx=0;exitDy=0;entryX=0.5;entryY=0;entryDx=0;entryDy=0;" edge="1" parent="1" source="161" target="163">
                    <mxGeometry relative="1" as="geometry"/>
                </mxCell>
                <mxCell id="161" value="Engine Adapter" style="rounded=0;whiteSpace=wrap;html=1;" vertex="1" parent="1">
                    <mxGeometry x="205" y="1410" width="90" height="60" as="geometry"/>
                </mxCell>
                <mxCell id="167" style="edgeStyle=none;jumpStyle=arc;jumpSize=22;html=1;exitX=0;exitY=0.5;exitDx=0;exitDy=0;entryX=0.5;entryY=0;entryDx=0;entryDy=0;" edge="1" parent="1" source="163" target="165">
                    <mxGeometry relative="1" as="geometry">
                        <Array as="points">
                            <mxPoint x="95" y="1540"/>
                        </Array>
                    </mxGeometry>
                </mxCell>
                <mxCell id="168" style="edgeStyle=none;jumpStyle=arc;jumpSize=22;html=1;exitX=1;exitY=0.5;exitDx=0;exitDy=0;entryX=0.5;entryY=0;entryDx=0;entryDy=0;" edge="1" parent="1" source="163" target="166">
                    <mxGeometry relative="1" as="geometry">
                        <Array as="points">
                            <mxPoint x="405" y="1540"/>
                        </Array>
                    </mxGeometry>
                </mxCell>
                <mxCell id="163" value="Simulation Model" style="shape=parallelogram;perimeter=parallelogramPerimeter;whiteSpace=wrap;html=1;fixedSize=1;" vertex="1" parent="1">
                    <mxGeometry x="180" y="1510" width="140" height="60" as="geometry"/>
                </mxCell>
                <mxCell id="172" style="edgeStyle=none;jumpStyle=arc;jumpSize=22;html=1;exitX=0.5;exitY=1;exitDx=0;exitDy=0;entryX=0.5;entryY=0;entryDx=0;entryDy=0;" edge="1" parent="1" source="165" target="171">
                    <mxGeometry relative="1" as="geometry">
                        <mxPoint x="115" y="1690" as="targetPoint"/>
                    </mxGeometry>
                </mxCell>
                <mxCell id="165" value="Simulate/Forecast" style="rounded=0;whiteSpace=wrap;html=1;" vertex="1" parent="1">
                    <mxGeometry x="35" y="1595" width="120" height="60" as="geometry"/>
                </mxCell>
                <mxCell id="170" style="edgeStyle=none;jumpStyle=arc;jumpSize=22;html=1;exitX=0.5;exitY=1;exitDx=0;exitDy=0;entryX=0.5;entryY=0;entryDx=0;entryDy=0;" edge="1" parent="1" source="166" target="169">
                    <mxGeometry relative="1" as="geometry">
                        <mxPoint x="455" y="1670" as="targetPoint"/>
                    </mxGeometry>
                </mxCell>
                <mxCell id="166" value="Calibrate" style="rounded=0;whiteSpace=wrap;html=1;" vertex="1" parent="1">
                    <mxGeometry x="345" y="1595" width="120" height="60" as="geometry"/>
                </mxCell>
                <mxCell id="250" style="edgeStyle=none;jumpStyle=arc;jumpSize=22;html=1;exitX=0;exitY=0.5;exitDx=0;exitDy=0;entryX=1;entryY=0.5;entryDx=0;entryDy=0;" edge="1" parent="1" source="169" target="173">
                    <mxGeometry relative="1" as="geometry"/>
                </mxCell>
                <mxCell id="169" value="Simulation Model" style="shape=parallelogram;perimeter=parallelogramPerimeter;whiteSpace=wrap;html=1;fixedSize=1;" vertex="1" parent="1">
                    <mxGeometry x="337.5" y="1705" width="135" height="60" as="geometry"/>
                </mxCell>
                <mxCell id="171" value="Simulation Results &lt;br&gt;and Forecasts" style="shape=parallelogram;perimeter=parallelogramPerimeter;whiteSpace=wrap;html=1;fixedSize=1;" vertex="1" parent="1">
                    <mxGeometry x="20" y="1705" width="150" height="60" as="geometry"/>
                </mxCell>
                <mxCell id="251" style="edgeStyle=none;jumpStyle=arc;jumpSize=22;html=1;exitX=0.5;exitY=0;exitDx=0;exitDy=0;entryX=0.5;entryY=1;entryDx=0;entryDy=0;" edge="1" parent="1" source="173" target="163">
                    <mxGeometry relative="1" as="geometry"/>
                </mxCell>
                <mxCell id="173" value="Scenario Builder" style="rounded=0;whiteSpace=wrap;html=1;" vertex="1" parent="1">
                    <mxGeometry x="190" y="1705" width="120" height="60" as="geometry"/>
                </mxCell>
                <mxCell id="189" value="" style="edgeStyle=none;jumpStyle=arc;jumpSize=22;html=1;" edge="1" parent="1" source="186" target="188">
                    <mxGeometry relative="1" as="geometry"/>
                </mxCell>
                <mxCell id="195" value="" style="edgeStyle=none;jumpStyle=arc;jumpSize=22;html=1;" edge="1" parent="1" source="186" target="194">
                    <mxGeometry relative="1" as="geometry"/>
                </mxCell>
                <mxCell id="199" value="" style="edgeStyle=none;jumpStyle=arc;jumpSize=22;html=1;" edge="1" parent="1" source="186" target="198">
                    <mxGeometry relative="1" as="geometry"/>
                </mxCell>
                <mxCell id="202" value="" style="edgeStyle=none;jumpStyle=arc;jumpSize=22;html=1;" edge="1" parent="1" source="186" target="201">
                    <mxGeometry relative="1" as="geometry"/>
                </mxCell>
                <mxCell id="186" value="Compartmental Model" style="rounded=0;whiteSpace=wrap;html=1;" vertex="1" parent="1">
                    <mxGeometry x="-622" y="1230" width="120" height="60" as="geometry"/>
                </mxCell>
                <mxCell id="188" value="Simulation Step Sub-Model" style="whiteSpace=wrap;html=1;rounded=0;" vertex="1" parent="1">
                    <mxGeometry x="-552" y="1360" width="120" height="60" as="geometry"/>
                </mxCell>
                <mxCell id="194" value="Symbolic Vectors &amp;amp; Matrices Sub-Model" style="whiteSpace=wrap;html=1;rounded=0;" vertex="1" parent="1">
                    <mxGeometry x="-812" y="1360" width="120" height="60" as="geometry"/>
                </mxCell>
                <mxCell id="198" value="State Initialization Sub-Model" style="whiteSpace=wrap;html=1;rounded=0;" vertex="1" parent="1">
                    <mxGeometry x="-682" y="1360" width="120" height="60" as="geometry"/>
                </mxCell>
                <mxCell id="201" value="Post Processing Sub-Model" style="whiteSpace=wrap;html=1;rounded=0;" vertex="1" parent="1">
                    <mxGeometry x="-422" y="1360" width="120" height="60" as="geometry"/>
                </mxCell>
                <mxCell id="212" value="" style="edgeStyle=none;jumpStyle=arc;jumpSize=22;html=1;" edge="1" parent="1" source="209" target="211">
                    <mxGeometry relative="1" as="geometry"/>
                </mxCell>
                <mxCell id="233" style="edgeStyle=none;jumpStyle=arc;jumpSize=22;html=1;entryX=0.5;entryY=0;entryDx=0;entryDy=0;" edge="1" parent="1" source="209" target="228">
                    <mxGeometry relative="1" as="geometry"/>
                </mxCell>
                <mxCell id="209" value="Temporal Localization Model" style="rounded=0;whiteSpace=wrap;html=1;" vertex="1" parent="1">
                    <mxGeometry x="-232" y="1230" width="120" height="60" as="geometry"/>
                </mxCell>
                <mxCell id="211" value="Exogenous Time Variation Sub-Model (optional)" style="whiteSpace=wrap;html=1;rounded=0;" vertex="1" parent="1">
                    <mxGeometry x="-292" y="1360" width="120" height="60" as="geometry"/>
                </mxCell>
                <mxCell id="228" value="Data Comparison Sub-Model&lt;br&gt;(required for calibration only)" style="whiteSpace=wrap;html=1;rounded=0;" vertex="1" parent="1">
                    <mxGeometry x="-157" y="1360" width="120" height="60" as="geometry"/>
                </mxCell>
                <mxCell id="236" style="edgeStyle=none;jumpStyle=arc;jumpSize=22;html=1;entryX=0.5;entryY=0;entryDx=0;entryDy=0;" edge="1" parent="1" source="235" target="186">
                    <mxGeometry relative="1" as="geometry"/>
                </mxCell>
                <mxCell id="237" style="edgeStyle=none;jumpStyle=arc;jumpSize=22;html=1;entryX=0.5;entryY=0;entryDx=0;entryDy=0;" edge="1" parent="1" source="235" target="209">
                    <mxGeometry relative="1" as="geometry"/>
                </mxCell>
                <mxCell id="239" style="edgeStyle=none;jumpStyle=arc;jumpSize=22;html=1;entryX=0.5;entryY=0;entryDx=0;entryDy=0;" edge="1" parent="1" source="235" target="238">
                    <mxGeometry relative="1" as="geometry"/>
                </mxCell>
                <mxCell id="235" value="Simulation Model" style="rounded=0;whiteSpace=wrap;html=1;" vertex="1" parent="1">
                    <mxGeometry x="-422" y="1130" width="120" height="60" as="geometry"/>
                </mxCell>
                <mxCell id="238" value="Simulation Engine" style="rounded=0;whiteSpace=wrap;html=1;" vertex="1" parent="1">
                    <mxGeometry x="-422" y="1230" width="120" height="60" as="geometry"/>
                </mxCell>
                <mxCell id="253" style="edgeStyle=none;jumpStyle=arc;jumpSize=22;html=1;exitX=0.5;exitY=1;exitDx=0;exitDy=0;entryX=0;entryY=0.5;entryDx=0;entryDy=0;" edge="1" parent="1" source="240" target="161">
                    <mxGeometry relative="1" as="geometry">
                        <Array as="points">
                            <mxPoint x="95" y="1440"/>
                        </Array>
                    </mxGeometry>
                </mxCell>
                <mxCell id="240" value="Temporal Localization Model" style="shape=parallelogram;perimeter=parallelogramPerimeter;whiteSpace=wrap;html=1;fixedSize=1;" vertex="1" parent="1">
                    <mxGeometry x="45" y="1310" width="100" height="60" as="geometry"/>
                </mxCell>
                <mxCell id="242" style="edgeStyle=none;jumpStyle=arc;jumpSize=22;html=1;exitX=0.5;exitY=1;exitDx=0;exitDy=0;entryX=0.5;entryY=0;entryDx=0;entryDy=0;" edge="1" parent="1" source="241" target="240">
                    <mxGeometry relative="1" as="geometry"/>
                </mxCell>
                <mxCell id="241" value="Make Temporal Localization Model" style="rounded=0;whiteSpace=wrap;html=1;" vertex="1" parent="1">
                    <mxGeometry x="35" y="1220" width="120" height="60" as="geometry"/>
                </mxCell>
                <mxCell id="249" style="edgeStyle=none;jumpStyle=arc;jumpSize=22;html=1;exitX=0.5;exitY=1;exitDx=0;exitDy=0;entryX=0.5;entryY=0;entryDx=0;entryDy=0;" edge="1" parent="1" source="248" target="241">
                    <mxGeometry relative="1" as="geometry"/>
                </mxCell>
                <mxCell id="248" value="Temporal&lt;br&gt;Localization Information" style="shape=parallelogram;perimeter=parallelogramPerimeter;whiteSpace=wrap;html=1;fixedSize=1;" vertex="1" parent="1">
                    <mxGeometry x="35" y="1130" width="120" height="60" as="geometry"/>
                </mxCell>
            </root>
        </mxGraphModel>
    </diagram>
</mxfile>